<mxfile host="app.diagrams.net" agent="Mozilla/5.0 (Windows NT 10.0; Win64; x64) AppleWebKit/537.36 (KHTML, like Gecko) Chrome/138.0.0.0 Safari/537.36 Edg/138.0.0.0" version="27.2.0">
  <diagram name="第 1 页" id="zhQ6WpbRRzpjeAkoONwy">
    <mxGraphModel dx="1149" dy="682" grid="1" gridSize="10" guides="1" tooltips="1" connect="1" arrows="1" fold="1" page="1" pageScale="1" pageWidth="827" pageHeight="1169" math="0" shadow="0">
      <root>
        <mxCell id="0" />
        <mxCell id="1" parent="0" />
        <mxCell id="TYAduwiiGorjIypumtT7-27" value="n" style="text;html=1;align=center;verticalAlign=middle;resizable=0;points=[];autosize=1;strokeColor=none;fillColor=none;fontSize=15;" vertex="1" parent="1">
          <mxGeometry x="402" y="370.5" width="30" height="35" as="geometry" />
        </mxCell>
        <mxCell id="TYAduwiiGorjIypumtT7-28" style="edgeStyle=orthogonalEdgeStyle;rounded=0;orthogonalLoop=1;jettySize=auto;html=1;entryX=0.5;entryY=1;entryDx=0;entryDy=0;fontSize=15;" edge="1" parent="1" source="TYAduwiiGorjIypumtT7-30" target="TYAduwiiGorjIypumtT7-33">
          <mxGeometry relative="1" as="geometry">
            <Array as="points">
              <mxPoint x="295" y="429" />
              <mxPoint x="295" y="458" />
              <mxPoint x="560" y="458" />
            </Array>
          </mxGeometry>
        </mxCell>
        <mxCell id="TYAduwiiGorjIypumtT7-29" value="" style="edgeStyle=orthogonalEdgeStyle;rounded=0;orthogonalLoop=1;jettySize=auto;html=1;fontSize=15;" edge="1" parent="1" source="TYAduwiiGorjIypumtT7-30" target="TYAduwiiGorjIypumtT7-31">
          <mxGeometry relative="1" as="geometry" />
        </mxCell>
        <mxCell id="TYAduwiiGorjIypumtT7-30" value="Conv" style="rounded=0;whiteSpace=wrap;html=1;fillColor=#d5e8d4;fontSize=15;fontFamily=Times New Roman;strokeColor=#82b366;" vertex="1" parent="1">
          <mxGeometry x="205" y="413.5" width="70" height="30" as="geometry" />
        </mxCell>
        <mxCell id="TYAduwiiGorjIypumtT7-31" value="WTConv" style="rounded=0;whiteSpace=wrap;html=1;fillColor=#f5f5f5;fontSize=15;fontFamily=Times New Roman;strokeColor=#666666;fontColor=#333333;" vertex="1" parent="1">
          <mxGeometry x="323" y="413.5" width="70" height="30" as="geometry" />
        </mxCell>
        <mxCell id="TYAduwiiGorjIypumtT7-32" value="" style="edgeStyle=orthogonalEdgeStyle;rounded=0;orthogonalLoop=1;jettySize=auto;html=1;fontSize=15;" edge="1" parent="1" source="TYAduwiiGorjIypumtT7-33" target="TYAduwiiGorjIypumtT7-37">
          <mxGeometry relative="1" as="geometry" />
        </mxCell>
        <mxCell id="TYAduwiiGorjIypumtT7-33" value="Concat" style="rounded=0;whiteSpace=wrap;html=1;fillColor=#dae8fc;fontSize=15;fontFamily=Times New Roman;strokeColor=#6c8ebf;" vertex="1" parent="1">
          <mxGeometry x="525" y="413.5" width="70" height="30" as="geometry" />
        </mxCell>
        <mxCell id="TYAduwiiGorjIypumtT7-34" value="" style="edgeStyle=orthogonalEdgeStyle;rounded=0;orthogonalLoop=1;jettySize=auto;html=1;fontSize=15;" edge="1" parent="1" source="TYAduwiiGorjIypumtT7-35" target="TYAduwiiGorjIypumtT7-33">
          <mxGeometry relative="1" as="geometry" />
        </mxCell>
        <mxCell id="TYAduwiiGorjIypumtT7-35" value="WTConv" style="rounded=0;whiteSpace=wrap;html=1;fillColor=#f5f5f5;fontSize=15;fontFamily=Times New Roman;strokeColor=#666666;fontColor=#333333;" vertex="1" parent="1">
          <mxGeometry x="417" y="413.5" width="70" height="30" as="geometry" />
        </mxCell>
        <mxCell id="TYAduwiiGorjIypumtT7-44" style="edgeStyle=orthogonalEdgeStyle;rounded=0;orthogonalLoop=1;jettySize=auto;html=1;" edge="1" parent="1" source="TYAduwiiGorjIypumtT7-37">
          <mxGeometry relative="1" as="geometry">
            <mxPoint x="719" y="428.5" as="targetPoint" />
          </mxGeometry>
        </mxCell>
        <mxCell id="TYAduwiiGorjIypumtT7-37" value="Conv" style="rounded=0;whiteSpace=wrap;html=1;fillColor=#d5e8d4;fontSize=15;fontFamily=Times New Roman;strokeColor=#82b366;" vertex="1" parent="1">
          <mxGeometry x="619" y="413.5" width="70" height="30" as="geometry" />
        </mxCell>
        <mxCell id="TYAduwiiGorjIypumtT7-38" value="C3K2-W" style="rounded=0;whiteSpace=wrap;html=1;fillColor=#ffe6cc;fontSize=15;fontFamily=Times New Roman;strokeColor=#d79b00;" vertex="1" parent="1">
          <mxGeometry x="100" y="413.5" width="70" height="30" as="geometry" />
        </mxCell>
        <mxCell id="TYAduwiiGorjIypumtT7-39" value="=" style="text;html=1;align=center;verticalAlign=middle;resizable=0;points=[];autosize=1;strokeColor=none;fillColor=none;fontSize=15;" vertex="1" parent="1">
          <mxGeometry x="162" y="413.5" width="30" height="35" as="geometry" />
        </mxCell>
        <mxCell id="TYAduwiiGorjIypumtT7-40" value="sp&lt;span style=&quot;background-color: transparent; color: light-dark(rgb(0, 0, 0), rgb(255, 255, 255));&quot;&gt;lit&lt;/span&gt;" style="text;html=1;align=center;verticalAlign=middle;resizable=0;points=[];autosize=1;strokeColor=none;fillColor=none;fontSize=15;" vertex="1" parent="1">
          <mxGeometry x="272.5" y="400.5" width="50" height="35" as="geometry" />
        </mxCell>
        <mxCell id="TYAduwiiGorjIypumtT7-41" value="···" style="text;html=1;align=center;verticalAlign=middle;resizable=0;points=[];autosize=1;strokeColor=none;fillColor=none;fontSize=15;fontStyle=1" vertex="1" parent="1">
          <mxGeometry x="384" y="413.5" width="40" height="30" as="geometry" />
        </mxCell>
        <mxCell id="TYAduwiiGorjIypumtT7-42" value="" style="shape=curlyBracket;whiteSpace=wrap;html=1;rounded=1;labelPosition=left;verticalLabelPosition=middle;align=right;verticalAlign=middle;rotation=90;fontSize=15;" vertex="1" parent="1">
          <mxGeometry x="407" y="343.5" width="20" height="120" as="geometry" />
        </mxCell>
        <mxCell id="TYAduwiiGorjIypumtT7-43" value="" style="edgeStyle=orthogonalEdgeStyle;rounded=0;orthogonalLoop=1;jettySize=auto;html=1;fontSize=15;" edge="1" parent="1">
          <mxGeometry relative="1" as="geometry">
            <mxPoint x="182.5" y="430.8600000000001" as="sourcePoint" />
            <mxPoint x="202.5" y="431.12000000000035" as="targetPoint" />
          </mxGeometry>
        </mxCell>
        <mxCell id="TYAduwiiGorjIypumtT7-2" value="" style="edgeStyle=orthogonalEdgeStyle;rounded=0;orthogonalLoop=1;jettySize=auto;html=1;fontSize=15;" edge="1" parent="1" source="TYAduwiiGorjIypumtT7-4" target="TYAduwiiGorjIypumtT7-6">
          <mxGeometry relative="1" as="geometry" />
        </mxCell>
        <mxCell id="TYAduwiiGorjIypumtT7-3" value="" style="edgeStyle=orthogonalEdgeStyle;rounded=0;orthogonalLoop=1;jettySize=auto;html=1;fontSize=15;" edge="1" parent="1" source="TYAduwiiGorjIypumtT7-4" target="TYAduwiiGorjIypumtT7-8">
          <mxGeometry relative="1" as="geometry" />
        </mxCell>
        <mxCell id="TYAduwiiGorjIypumtT7-4" value="Conv" style="rounded=0;whiteSpace=wrap;html=1;labelBackgroundColor=none;strokeColor=#82b366;fillColor=#d5e8d4;align=center;fontStyle=0;fontSize=15;direction=east;" vertex="1" parent="1">
          <mxGeometry x="201" y="243.5" width="70" height="30" as="geometry" />
        </mxCell>
        <mxCell id="TYAduwiiGorjIypumtT7-5" style="edgeStyle=orthogonalEdgeStyle;rounded=0;orthogonalLoop=1;jettySize=auto;html=1;entryX=0;entryY=0.5;entryDx=0;entryDy=0;" edge="1" parent="1" source="TYAduwiiGorjIypumtT7-6" target="TYAduwiiGorjIypumtT7-21">
          <mxGeometry relative="1" as="geometry" />
        </mxCell>
        <mxCell id="TYAduwiiGorjIypumtT7-6" value="Conv" style="rounded=0;whiteSpace=wrap;html=1;labelBackgroundColor=none;strokeColor=#82b366;fillColor=#d5e8d4;align=center;fontStyle=0;fontSize=15;direction=east;" vertex="1" parent="1">
          <mxGeometry x="411.5" y="243.5" width="70.00000000000004" height="30" as="geometry" />
        </mxCell>
        <mxCell id="TYAduwiiGorjIypumtT7-7" value="" style="edgeStyle=orthogonalEdgeStyle;rounded=0;orthogonalLoop=1;jettySize=auto;html=1;fontSize=15;" edge="1" parent="1" source="TYAduwiiGorjIypumtT7-8" target="TYAduwiiGorjIypumtT7-10">
          <mxGeometry relative="1" as="geometry" />
        </mxCell>
        <mxCell id="TYAduwiiGorjIypumtT7-8" value="WT" style="rounded=0;whiteSpace=wrap;html=1;labelBackgroundColor=none;strokeColor=#b85450;fillColor=#f8cecc;align=center;fontStyle=0;fontSize=15;direction=east;" vertex="1" parent="1">
          <mxGeometry x="201" y="299.5" width="70" height="30" as="geometry" />
        </mxCell>
        <mxCell id="TYAduwiiGorjIypumtT7-9" value="" style="edgeStyle=orthogonalEdgeStyle;rounded=0;orthogonalLoop=1;jettySize=auto;html=1;fontSize=15;" edge="1" parent="1" source="TYAduwiiGorjIypumtT7-10" target="TYAduwiiGorjIypumtT7-15">
          <mxGeometry relative="1" as="geometry" />
        </mxCell>
        <mxCell id="TYAduwiiGorjIypumtT7-10" value="WT" style="rounded=0;whiteSpace=wrap;html=1;labelBackgroundColor=none;strokeColor=#b85450;fillColor=#f8cecc;align=center;fontStyle=0;fontSize=15;direction=east;" vertex="1" parent="1">
          <mxGeometry x="201" y="355.5" width="70.00000000000004" height="30" as="geometry" />
        </mxCell>
        <mxCell id="TYAduwiiGorjIypumtT7-11" value="" style="edgeStyle=orthogonalEdgeStyle;rounded=0;orthogonalLoop=1;jettySize=auto;html=1;entryX=0;entryY=0.5;entryDx=0;entryDy=0;fontSize=15;" edge="1" parent="1" source="TYAduwiiGorjIypumtT7-8" target="TYAduwiiGorjIypumtT7-13">
          <mxGeometry relative="1" as="geometry">
            <mxPoint x="271" y="314.5" as="sourcePoint" />
            <mxPoint x="1021" y="214.5" as="targetPoint" />
          </mxGeometry>
        </mxCell>
        <mxCell id="TYAduwiiGorjIypumtT7-12" value="" style="edgeStyle=orthogonalEdgeStyle;rounded=0;orthogonalLoop=1;jettySize=auto;html=1;fontSize=15;" edge="1" parent="1" source="TYAduwiiGorjIypumtT7-13" target="TYAduwiiGorjIypumtT7-17">
          <mxGeometry relative="1" as="geometry" />
        </mxCell>
        <mxCell id="TYAduwiiGorjIypumtT7-13" value="Conv" style="rounded=0;whiteSpace=wrap;html=1;labelBackgroundColor=none;strokeColor=#82b366;fillColor=#d5e8d4;align=center;fontStyle=0;fontSize=15;direction=east;" vertex="1" parent="1">
          <mxGeometry x="336" y="299.5" width="70.00000000000004" height="30" as="geometry" />
        </mxCell>
        <mxCell id="TYAduwiiGorjIypumtT7-14" value="" style="edgeStyle=orthogonalEdgeStyle;rounded=0;orthogonalLoop=1;jettySize=auto;html=1;fontSize=15;" edge="1" parent="1" source="TYAduwiiGorjIypumtT7-15" target="TYAduwiiGorjIypumtT7-19">
          <mxGeometry relative="1" as="geometry" />
        </mxCell>
        <mxCell id="TYAduwiiGorjIypumtT7-15" value="Conv" style="rounded=0;whiteSpace=wrap;html=1;labelBackgroundColor=none;strokeColor=#82b366;fillColor=#d5e8d4;align=center;fontStyle=0;fontSize=15;direction=east;" vertex="1" parent="1">
          <mxGeometry x="336" y="355.5" width="70.00000000000004" height="30" as="geometry" />
        </mxCell>
        <mxCell id="TYAduwiiGorjIypumtT7-16" value="" style="edgeStyle=orthogonalEdgeStyle;rounded=0;orthogonalLoop=1;jettySize=auto;html=1;fontSize=15;" edge="1" parent="1" source="TYAduwiiGorjIypumtT7-17" target="TYAduwiiGorjIypumtT7-23">
          <mxGeometry relative="1" as="geometry" />
        </mxCell>
        <mxCell id="TYAduwiiGorjIypumtT7-17" value="Concat" style="rounded=0;whiteSpace=wrap;html=1;labelBackgroundColor=none;strokeColor=#6c8ebf;fillColor=#dae8fc;align=center;fontStyle=0;fontSize=15;direction=east;" vertex="1" parent="1">
          <mxGeometry x="492" y="299.5" width="70.00000000000004" height="30" as="geometry" />
        </mxCell>
        <mxCell id="TYAduwiiGorjIypumtT7-18" value="" style="edgeStyle=orthogonalEdgeStyle;rounded=0;orthogonalLoop=1;jettySize=auto;html=1;fontSize=15;" edge="1" parent="1" source="TYAduwiiGorjIypumtT7-19" target="TYAduwiiGorjIypumtT7-17">
          <mxGeometry relative="1" as="geometry" />
        </mxCell>
        <mxCell id="TYAduwiiGorjIypumtT7-19" value="IWT" style="rounded=0;whiteSpace=wrap;html=1;labelBackgroundColor=none;strokeColor=#9673a6;fillColor=#e1d5e7;align=center;fontStyle=0;fontSize=15;direction=east;" vertex="1" parent="1">
          <mxGeometry x="492" y="355.5" width="70.00000000000004" height="30" as="geometry" />
        </mxCell>
        <mxCell id="TYAduwiiGorjIypumtT7-46" style="edgeStyle=orthogonalEdgeStyle;rounded=0;orthogonalLoop=1;jettySize=auto;html=1;" edge="1" parent="1" source="TYAduwiiGorjIypumtT7-21">
          <mxGeometry relative="1" as="geometry">
            <mxPoint x="720" y="258.5" as="targetPoint" />
          </mxGeometry>
        </mxCell>
        <mxCell id="TYAduwiiGorjIypumtT7-21" value="Concat" style="rounded=0;whiteSpace=wrap;html=1;labelBackgroundColor=none;strokeColor=#6c8ebf;fillColor=#dae8fc;align=center;fontStyle=0;fontSize=15;direction=east;" vertex="1" parent="1">
          <mxGeometry x="619" y="243.5" width="70.00000000000004" height="30" as="geometry" />
        </mxCell>
        <mxCell id="TYAduwiiGorjIypumtT7-22" value="" style="edgeStyle=orthogonalEdgeStyle;rounded=0;orthogonalLoop=1;jettySize=auto;html=1;fontSize=15;" edge="1" parent="1" source="TYAduwiiGorjIypumtT7-23" target="TYAduwiiGorjIypumtT7-21">
          <mxGeometry relative="1" as="geometry" />
        </mxCell>
        <mxCell id="TYAduwiiGorjIypumtT7-23" value="IWT" style="rounded=0;whiteSpace=wrap;html=1;labelBackgroundColor=none;strokeColor=#9673a6;fillColor=#e1d5e7;align=center;fontStyle=0;fontSize=15;direction=east;" vertex="1" parent="1">
          <mxGeometry x="619" y="299.5" width="70.00000000000004" height="30" as="geometry" />
        </mxCell>
        <mxCell id="TYAduwiiGorjIypumtT7-24" value="WTConv" style="rounded=0;whiteSpace=wrap;html=1;fillColor=#f5f5f5;fontSize=15;fontFamily=Times New Roman;strokeColor=#666666;fontColor=#333333;" vertex="1" parent="1">
          <mxGeometry x="100" y="241" width="70" height="30" as="geometry" />
        </mxCell>
        <mxCell id="TYAduwiiGorjIypumtT7-25" value="=" style="text;html=1;align=center;verticalAlign=middle;resizable=0;points=[];autosize=1;strokeColor=none;fillColor=none;fontSize=15;" vertex="1" parent="1">
          <mxGeometry x="159.5" y="240" width="30" height="35" as="geometry" />
        </mxCell>
        <mxCell id="TYAduwiiGorjIypumtT7-26" value="" style="edgeStyle=orthogonalEdgeStyle;rounded=0;orthogonalLoop=1;jettySize=auto;html=1;fontSize=15;" edge="1" parent="1">
          <mxGeometry relative="1" as="geometry">
            <mxPoint x="180.5" y="258.21000000000026" as="sourcePoint" />
            <mxPoint x="200.5" y="258.4700000000005" as="targetPoint" />
            <Array as="points">
              <mxPoint x="191" y="257.95000000000005" />
            </Array>
          </mxGeometry>
        </mxCell>
      </root>
    </mxGraphModel>
  </diagram>
</mxfile>
